<?xml version="1.0"?><svg xmlns="http://www.w3.org/2000/svg" viewBox="0 0 128 128"><path d="m120.2 25.11c-3.16.32-6.96 3.8-6.96 3.8s-1.58-.95-4.59-.79-6.96 3.01-6.96 3.01c.63-5.85-8.54-8.07-8.54-8.07s-.95-6.64-3.64-6.64-7.12 6.8-6.64 14.55 8.38 15.66 8.38 15.66l-.32 2.69s-1.42.32-4.43-1.58-6.8-6.01-9.81-11.23-9.81-8.86-9.81-8.86 1.58-1.11 2.69-3.01 1.9-6.49-5.06-6.96-11.71 3.16-11.71 3.16c-19.46-2.21-34.22 7.65-41.81 17.93-7.59 10.28-8.9 21.61-4.53 32.37 5.69 14.02 16.83 35.82 38.66 39.67 21.32 3.76 33.85-7.28 33.85-7.28 9.81.79 20.09-2.53 21.51-6.96s-2.32-9.28-2.32-9.28 1.63-1.21 7.17-14.34 3.31-22.54 3.31-22.54c8.7-2.85 13.13-10.12 14.71-16.29s0-9.33-3.16-9.02zm-6.8 17.77c-6.75 4.85-9.6 4.85-9.7 5.8s.74 12.86-5.91 23.3c-6.64 10.44-10.86 12.44-10.23 14.03.63 1.58 8.01 4.64 8.33 5.8s-3.59 2.85-8.23 2.85-8.86-.95-9.7-.32-11.49 8.75-28.47 8.75-31.21-17.4-36.59-27.94c-5.38-10.55-5.59-19.61-3.48-26.26 1.68-5.28 9.81-17.61 24.04-21.72 14.24-4.11 17.61-2.43 19.51-2.32s5.91-3.8 9.6-4.11c3.69-.32 5.59.63 4.22 2.32s-4.75 5.38-3.69 6.64 7.7 4.43 11.39 9.91 8.33 9.91 12.34 11.92c4.01 2 6.96.74 7.38-.63s1.16-4.75.74-5.27c-.42-.53-6.54-5.91-8.12-11.71s.84-13.29 2.21-13.29 1.16 5.27 1.79 5.59 4.01.21 6.33 2.32 2.95 4.32 2.95 4.32-1.69 4.75.53 4.85c2.21.11 2.21-5.38 7.17-5.59s6.85.42 7.49-.21 3.06-3.06 4.32-2.95c1.27.11.53 9.07-6.22 13.92zm-28.79 20.77c-.11-4.01-6.22-12.65-13.71-12.76s-8.21 4.83-7.49 7.17c.42 1.37 1.16 3.48 3.8 6.22s7.28 5.69 11.6 5.91c4.32.21 5.91-2.53 5.8-6.54zm-15.71-1.58c-1.05-.63-2.11-2.21-2-3.8.08-1.27 3.9.42 4.01 2.43s-.95 2-2 1.37zm5.91 4.32c-2.95-1.58-3.48-2.53-3.48-2.53s3.37-.95 2.32-3.9-3.9-4.64-6.22-4.53c0 0 1.37-3.48 5.27-1.69s9.6 8.54 8.65 11.39-3.59 2.85-6.54 1.27zm-5.49 13.4c-4.96-5.59-11.39-18.03-25.1-26.57s-23.68-8.18-27.42-4.64c-2 1.9-3.69 8.23-1.37 14.76 2.32 6.54 11.81 19.93 17.4 25.94s12.65 6.22 14.87 4.64c2.21-1.58 3.16-3.48 1.69-5.91-1.48-2.43-2-3.9-.32-4.43 1.69-.53 3.37.74 6.96 4.85s6.85 7.8 13.18 7.07c6.33-.74 8.54-5.06 8.44-7.7-.11-2.64-3.37-2.43-8.33-8.01zm-1.37 12.44c-5.27-.74-9.28-7.17-14.02-10.33-4.75-3.16-6.54-2.11-8.44-.21s-2 4.22 1.27 8.23c0 0-3.15 3.78-9.91-2.21-9.28-8.23-23.83-29.63-17.29-36.28 2.56-2.6 15.61-3.37 27.21 8.23s20.98 24.46 23.62 26.68c2.64 2.21 3.59 2.74 3.59 2.74s-.74 3.9-6.01 3.16zm-40.7-55.79c1.37-1.05 2.74-2 7.38-4.32s10.12-1.79 11.07-2.21.63-1.37-.21-2.11-4.4-1.03-10.23.84c-5.59 1.79-9.92 3.7-10.76 5.38-1.05 2.11 1.37 3.48 2.74 2.43zm54.2 39.44c-.95-.63-2.65 1.17-2.21 2.11.74 1.58 3.48 5.06 4.43 5.48s1.37-.74 1.37-1.69-2.64-5.27-3.59-5.91zm4.11-1.47c-.84-.32-2.72.1-2.21 1.27 1.05 2.43 2.95 5.06 3.59 5.59.63.53 2.21-.42 2.21-1.27s-2.74-5.27-3.59-5.59zm2.96-2.74c-.84-.42-2.29.65-2.11 1.37.21.84 3.16 4.22 3.59 4.43.42.21 1.58-.63 1.79-1.48.21-.84-2.43-3.9-3.27-4.32zm2.74-3.8c-.84-.21-2.6 1.5-1.9 2.32.63.74 3.37 3.37 3.9 3.37s.95-.63 1.16-1.48-2.32-4.01-3.16-4.22zm3.16-5.17c-1.27-.53-2.89 1.78-2.11 2.95.63.95 2.64 2.64 3.48 2.85s1.16-.74 1.16-1.9-1.27-3.37-2.53-3.9zm1.48-4.01c-.95 2.64 1.37 4.22 1.9 2.85s-1-5.33-1.9-2.85z" fill="#1d1d1b"/></svg>